<?xml version="1.0" encoding="utf-8"?><!DOCTYPE svg PUBLIC "-//W3C//DTD SVG 1.1//EN" "http://www.w3.org/Graphics/SVG/1.1/DTD/svg11.dtd"><svg version="1.1" xmlns="http://www.w3.org/2000/svg" xmlns:xlink="http://www.w3.org/1999/xlink" x="0px" y="0px" width="150px" height="150px" viewBox="0 0 150 150" enable-background="new 0 0 150 150" xml:space="preserve"><g id="Layer_2" display="none"><rect x="-170" y="-1187.3" display="inline" fill="#F0F0F0" width="1680" height="1677.3"/></g><g id="Layer_1"><rect x="53.9" y="30.5" fill="#FF7F00" width="54.6" height="98.1"/><rect x="47.9" y="20.9" fill="#FFFFFF" width="68.6" height="28.4"/><path fill="#14D4F4" d="M39.7,128.3H17.1c-4.3,0-7.8-3.5-7.8-7.8v0c0-4.3,3.5-7.8,7.8-7.8h22.6c4.3,0,7.8,3.5,7.8,7.8v0 C47.6,124.8,44,128.3,39.7,128.3z"/><path fill="#D33131" d="M39.7,112.6H28.4v15.7h11.3c4.3,0,7.8-3.5,7.8-7.8S44,112.6,39.7,112.6z"/><path fill="#14D4F4" d="M127,126.8l-16-16c-3.1-3.1-3.1-8,0-11.1l0,0c3.1-3.1,8-3.1,11.1,0l16,16c3.1,3.1,3.1,8,0,11.1v0 C135,129.9,130,129.9,127,126.8z"/><path fill="#D33131" d="M138.1,115.7l-8-8L119,118.8l8,8c3.1,3.1,8,3.1,11.1,0C141.1,123.8,141.1,118.8,138.1,115.7z"/><rect x="53.6" y="62.1" fill="#FFFFFF" width="43.6" height="48.1"/><polygon fill="#D33131" points="90.5,73.2 85.1,73.2 85.1,67.9 77.6,67.9 77.6,73.2 72.2,73.2 72.2,80.8 77.6,80.8 77.6,86.1 85.1,86.1 85.1,80.8 90.5,80.8"/><path fill="#EAEAEA" d="M53,46.5L53,46.5c-0.8,0-1.5-0.7-1.5-1.5V26.2c0-0.8,0.7-1.5,1.5-1.5h0c0.8,0,1.5,0.7,1.5,1.5v18.7 C54.6,45.8,53.9,46.5,53,46.5z"/><path fill="#EAEAEA" d="M59,46.5L59,46.5c-0.8,0-1.5-0.7-1.5-1.5V26.2c0-0.8,0.7-1.5,1.5-1.5h0c0.8,0,1.5,0.7,1.5,1.5v18.7 C60.6,45.8,59.9,46.5,59,46.5z"/><g><defs><rect id="SVGID_5_" x="-157" y="3.2" width="119.5" height="140.5"/></defs><clipPath id="SVGID_1_"><use xlink:href="#SVGID_5_" overflow="visible"/></clipPath><line clip-path="url(#SVGID_1_)" fill="none" stroke="#636363" stroke-width="2.2058" stroke-linecap="round" stroke-miterlimit="10" x1="-26.1" y1="112.4" x2="5.8" y2="144.3"/><line clip-path="url(#SVGID_1_)" fill="none" stroke="#636363" stroke-width="2.2058" stroke-linecap="round" stroke-miterlimit="10" x1="-15.6" y1="112.4" x2="16.3" y2="144.3"/><line clip-path="url(#SVGID_1_)" fill="none" stroke="#636363" stroke-width="2.2058" stroke-linecap="round" stroke-miterlimit="10" x1="-5.1" y1="112.4" x2="26.8" y2="144.3"/><line clip-path="url(#SVGID_1_)" fill="none" stroke="#636363" stroke-width="2.2058" stroke-linecap="round" stroke-miterlimit="10" x1="5.4" y1="112.4" x2="37.3" y2="144.3"/><line clip-path="url(#SVGID_1_)" fill="none" stroke="#636363" stroke-width="2.2058" stroke-linecap="round" stroke-miterlimit="10" x1="36.5" y1="112.4" x2="4.7" y2="144.3"/><line clip-path="url(#SVGID_1_)" fill="none" stroke="#636363" stroke-width="2.2058" stroke-linecap="round" stroke-miterlimit="10" x1="26.1" y1="112.4" x2="-5.8" y2="144.3"/><line clip-path="url(#SVGID_1_)" fill="none" stroke="#636363" stroke-width="2.2058" stroke-linecap="round" stroke-miterlimit="10" x1="15.6" y1="112.4" x2="-16.3" y2="144.3"/><line clip-path="url(#SVGID_1_)" fill="none" stroke="#636363" stroke-width="2.2058" stroke-linecap="round" stroke-miterlimit="10" x1="5.1" y1="112.4" x2="-26.8" y2="144.3"/></g></g><g id="Layer_3"/></svg>