<svg width="106" height="88" viewBox="0 0 106 88" version="1.1" xmlns="http://www.w3.org/2000/svg" xmlns:xlink="http://www.w3.org/1999/xlink"><defs><path d="M4.006 14.41l26.214 9.163a3.3 3.3 0 0 0 3.793-1.223L49.333.454a3.3 3.3 0 0 1 5.407 0L70.06 22.35a3.3 3.3 0 0 0 3.793 1.223l26.213-9.163a3.3 3.3 0 0 1 4.323 3.771L91.023 84.082a3.3 3.3 0 0 1-3.234 2.644H16.284a3.3 3.3 0 0 1-3.234-2.644l-13.367-65.9a3.3 3.3 0 0 1 4.323-3.772z" id="a"/></defs><g stroke="none" stroke-width="1" fill="none" fill-rule="evenodd"><g><g><g><g><g><g transform="translate(1 1)"><mask fill="#fff"><use xlink:href="#a"/></mask><use fill="#E3E3E3" xlink:href="#a"/></g></g></g></g></g></g></g></svg>